<svg xmlns="http://www.w3.org/2000/svg" width="640" height="640" viewBox="0 0 640 640" role="img" aria-labelledby="title desc">
  <title id="title">Projeto Tigelo do Amor</title>
  <desc id="desc">Marca provisória do projeto com círculo e ilustração de gato.</desc>
  <defs>
    <linearGradient id="bg" x1="0" x2="1" y1="0" y2="1">
      <stop offset="0%" stop-color="#f8c16e"/>
      <stop offset="100%" stop-color="#efaa4f"/>
    </linearGradient>
  </defs>
  <rect width="640" height="640" rx="40" fill="url(#bg)"/>
  <circle cx="320" cy="320" r="230" fill="#fff6ea" stroke="#ffffff" stroke-width="10"/>
  <text x="320" y="205" text-anchor="middle" font-family="'Trebuchet MS', Arial, sans-serif" font-size="44" fill="#6a3328" font-weight="700">TIGELO DO AMOR</text>
  <g transform="translate(230 260)">
    <ellipse cx="90" cy="105" rx="110" ry="70" fill="#e9b56a"/>
    <ellipse cx="155" cy="105" rx="80" ry="62" fill="#f3c98b"/>
    <circle cx="90" cy="62" r="44" fill="#e9b56a"/>
    <circle cx="155" cy="62" r="38" fill="#f3c98b"/>
    <polygon points="58,35 78,2 95,35" fill="#e29040"/>
    <polygon points="124,35 102,4 85,35" fill="#e29040"/>
    <polygon points="128,38 147,8 162,38" fill="#e6a15a"/>
    <polygon points="184,38 167,9 150,38" fill="#e6a15a"/>
    <circle cx="80" cy="63" r="4" fill="#5a2f27"/>
    <circle cx="102" cy="63" r="4" fill="#5a2f27"/>
    <circle cx="146" cy="64" r="4" fill="#5a2f27"/>
    <circle cx="164" cy="64" r="4" fill="#5a2f27"/>
    <circle cx="91" cy="76" r="3" fill="#5a2f27"/>
    <circle cx="155" cy="77" r="3" fill="#5a2f27"/>
  </g>
  <text x="320" y="470" text-anchor="middle" font-family="'Trebuchet MS', Arial, sans-serif" font-size="42" fill="#6a3328" font-weight="700">AMOR PELOS GATOS</text>
</svg>
